<svg xmlns="http://www.w3.org/2000/svg" width="680" height="382" viewBox="0 0 680 382"><defs><linearGradient id="bg" x1="0" y1="0" x2="0" y2="1"><stop offset="0" stop-color="#15110b"/><stop offset="1" stop-color="#0f0c08"/></linearGradient><linearGradient id="img" x1="0" y1="0" x2="1" y2="1"><stop offset="0" stop-color="#463c2d"/><stop offset="1" stop-color="#241f18"/></linearGradient><linearGradient id="gold" x1="0" y1="0" x2="1" y2="1"><stop offset="0" stop-color="#e9cf94"/><stop offset="1" stop-color="#caa86a"/></linearGradient></defs><rect width="680" height="382" fill="url(#bg)"/><text x="340" y="32" fill="#caa86a" font-family="Arial,sans-serif" font-size="13" font-weight="700" letter-spacing="2" text-anchor="middle">BRAND NUMBERS</text><rect x="40" y="88" width="70" height="12" rx="4" fill="#caa86a"/><rect x="40" y="112" width="190" height="18" rx="4" fill="#efe9dd"/><rect x="40" y="140" width="160" height="10" rx="4" fill="#6f665c"/><rect x="40" y="158" width="132" height="10" rx="4" fill="#6f665c"/><rect x="288" y="96" width="110" height="150" rx="14" fill="#241f18" stroke="#2e2820"/><text x="343" y="168" fill="#e9cf94" font-family="Arial" font-size="38" font-weight="700" text-anchor="middle">12+</text><rect x="316" y="188" width="54" height="9" rx="4" fill="#efe9dd"/><rect x="326" y="206" width="34" height="8" rx="4" fill="#6f665c"/><rect x="416" y="96" width="110" height="150" rx="14" fill="#241f18" stroke="#2e2820"/><text x="471" y="168" fill="#e9cf94" font-family="Arial" font-size="38" font-weight="700" text-anchor="middle">48K</text><rect x="444" y="188" width="54" height="9" rx="4" fill="#efe9dd"/><rect x="454" y="206" width="34" height="8" rx="4" fill="#6f665c"/><rect x="544" y="96" width="110" height="150" rx="14" fill="#241f18" stroke="#2e2820"/><text x="599" y="168" fill="#e9cf94" font-family="Arial" font-size="38" font-weight="700" text-anchor="middle">99%</text><rect x="572" y="188" width="54" height="9" rx="4" fill="#efe9dd"/><rect x="582" y="206" width="34" height="8" rx="4" fill="#6f665c"/><rect x="288" y="278" width="340" height="1" rx="0" fill="#2e2820"/><rect x="288" y="296" width="210" height="9" rx="4" fill="#6f665c"/></svg>