<svg xmlns="http://www.w3.org/2000/svg" width="680" height="382" viewBox="0 0 680 382"><defs><linearGradient id="bg" x1="0" y1="0" x2="0" y2="1"><stop offset="0" stop-color="#15110b"/><stop offset="1" stop-color="#0f0c08"/></linearGradient><linearGradient id="gold" x1="0" y1="0" x2="1" y2="1"><stop offset="0" stop-color="#e9cf94"/><stop offset="1" stop-color="#caa86a"/></linearGradient><linearGradient id="img" x1="0" y1="0" x2="1" y2="1"><stop offset="0" stop-color="#4a4030"/><stop offset="1" stop-color="#2a241c"/></linearGradient></defs><rect width="680" height="382" fill="url(#bg)"/><g><rect x="494" y="64" width="146" height="42" rx="10" fill="url(#gold)"/><rect x="514" y="80" width="92" height="10" rx="5" fill="#15110b"/><rect x="494" y="118" width="146" height="42" rx="10" fill="#1d1812" stroke="#3a3024" stroke-width="1"/><rect x="514" y="134" width="80" height="9" rx="4" fill="#cfc7ba"/><rect x="494" y="172" width="146" height="42" rx="10" fill="#1d1812" stroke="#3a3024" stroke-width="1"/><rect x="514" y="188" width="70" height="9" rx="4" fill="#cfc7ba"/><rect x="494" y="226" width="146" height="42" rx="10" fill="#1d1812" stroke="#3a3024" stroke-width="1"/><rect x="514" y="242" width="86" height="9" rx="4" fill="#cfc7ba"/></g><g><rect x="40" y="64" width="200" height="246" rx="14" fill="url(#img)" stroke="url(#gold)" stroke-width="2"/><rect x="62" y="250" width="120" height="12" rx="6" fill="#fff"/><rect x="62" y="274" width="80" height="20" rx="10" fill="url(#gold)"/></g><g><rect x="256" y="64" width="200" height="246" rx="14" fill="url(#img)"/><rect x="278" y="250" width="120" height="12" rx="6" fill="#fff"/><rect x="278" y="274" width="80" height="20" rx="10" fill="url(#gold)"/></g><text x="340" y="36" fill="#caa86a" font-family="Arial,sans-serif" font-size="14" font-weight="700" letter-spacing="2" text-anchor="middle">ASIDE PRODUCT TABS</text></svg>