<svg xmlns="http://www.w3.org/2000/svg" width="680" height="382" viewBox="0 0 680 382"><defs><linearGradient id="bg" x1="0" y1="0" x2="0" y2="1"><stop offset="0" stop-color="#15110b"/><stop offset="1" stop-color="#0f0c08"/></linearGradient><linearGradient id="ov" x1="0" y1="0" x2="0" y2="1"><stop offset="0" stop-color="#000" stop-opacity="0"/><stop offset="1" stop-color="#000" stop-opacity=".72"/></linearGradient><linearGradient id="gold" x1="0" y1="0" x2="1" y2="1"><stop offset="0" stop-color="#e9cf94"/><stop offset="1" stop-color="#caa86a"/></linearGradient><linearGradient id="img" x1="0" y1="0" x2="1" y2="1"><stop offset="0" stop-color="#4a4030"/><stop offset="1" stop-color="#2a241c"/></linearGradient></defs><rect width="680" height="382" fill="url(#bg)"/><g><rect x="40" y="52" width="92" height="278" rx="14" fill="url(#img)"/><rect x="40" y="52" width="92" height="278" rx="14" fill="url(#ov)"/><rect x="58" y="300" width="56" height="9" rx="4" fill="#cfc7ba"/></g><g><rect x="144" y="52" width="248" height="278" rx="16" fill="url(#img)" stroke="url(#gold)" stroke-width="2"/><rect x="144" y="52" width="248" height="278" rx="16" fill="url(#ov)"/><rect x="170" y="250" width="150" height="14" rx="6" fill="#fff"/><rect x="170" y="274" width="104" height="9" rx="4" fill="#d8d2c8"/><rect x="206" y="298" width="124" height="26" rx="13" fill="url(#gold)"/></g><g><rect x="404" y="52" width="92" height="278" rx="14" fill="url(#img)"/><rect x="404" y="52" width="92" height="278" rx="14" fill="url(#ov)"/><rect x="422" y="300" width="56" height="9" rx="4" fill="#cfc7ba"/></g><g><rect x="508" y="52" width="92" height="278" rx="14" fill="url(#img)"/><rect x="508" y="52" width="92" height="278" rx="14" fill="url(#ov)"/><rect x="526" y="300" width="56" height="9" rx="4" fill="#cfc7ba"/></g><text x="340" y="30" fill="#caa86a" font-family="Arial,sans-serif" font-size="14" font-weight="700" letter-spacing="2" text-anchor="middle">ACCORDION GALLERY</text></svg>