<svg xmlns="http://www.w3.org/2000/svg" width="680" height="382" viewBox="0 0 680 382"><defs><linearGradient id="bg2" x1="0" y1="0" x2="0" y2="1"><stop offset="0" stop-color="#15110b"/><stop offset="1" stop-color="#0f0c08"/></linearGradient><linearGradient id="img2" x1="0" y1="0" x2="1" y2="1"><stop offset="0" stop-color="#463c2d"/><stop offset="1" stop-color="#241f18"/></linearGradient><linearGradient id="gold2" x1="0" y1="0" x2="1" y2="1"><stop offset="0" stop-color="#e9cf94"/><stop offset="1" stop-color="#caa86a"/></linearGradient></defs><rect width="680" height="382" fill="url(#bg2)"/><rect x="40" y="52" width="356" height="290" rx="16" fill="url(#img2)" stroke="#2e2820"/><g><circle cx="150" cy="150" r="20" fill="#d8b978" opacity=".25"/><circle cx="150" cy="150" r="11" fill="url(#gold2)" stroke="#fff" stroke-width="2"/><text x="150" y="154" font-family="Arial" font-size="11" font-weight="700" fill="#15110b" text-anchor="middle">1</text></g><g><circle cx="286" cy="252" r="20" fill="#d8b978" opacity=".25"/><circle cx="286" cy="252" r="11" fill="url(#gold2)" stroke="#fff" stroke-width="2"/><text x="286" y="256" font-family="Arial" font-size="11" font-weight="700" fill="#15110b" text-anchor="middle">2</text></g><g><rect x="168" y="92" width="150" height="58" rx="10" fill="#1b1610" stroke="url(#gold2)"/><rect x="180" y="104" width="34" height="34" rx="6" fill="#3a332a"/><rect x="224" y="106" width="78" height="10" rx="4" fill="#efe9dd"/><rect x="224" y="124" width="50" height="9" rx="4" fill="#caa86a"/></g><g transform="translate(420,64)"><rect x="0" y="0" width="84" height="12" rx="4" fill="#caa86a"/><rect x="0" y="26" width="200" height="16" rx="5" fill="#efe9dd"/><g transform="translate(0,62)"><rect x="0" y="0" width="216" height="56" rx="10" fill="#241f18" stroke="#2e2820"/><rect x="12" y="11" width="34" height="34" rx="6" fill="#3a332a"/><rect x="58" y="14" width="96" height="10" rx="4" fill="#efe9dd"/><rect x="58" y="32" width="56" height="9" rx="4" fill="#caa86a"/><circle cx="196" cy="28" r="11" fill="url(#gold2)"/></g><g transform="translate(0,128)"><rect x="0" y="0" width="216" height="56" rx="10" fill="#241f18" stroke="#2e2820"/><rect x="12" y="11" width="34" height="34" rx="6" fill="#3a332a"/><rect x="58" y="14" width="96" height="10" rx="4" fill="#efe9dd"/><rect x="58" y="32" width="56" height="9" rx="4" fill="#caa86a"/><circle cx="196" cy="28" r="11" fill="url(#gold2)"/></g></g><text x="226" y="32" fill="#caa86a" font-family="Arial,sans-serif" font-size="13" font-weight="700" letter-spacing="2" text-anchor="middle">SHOP THE LOOK — HOTSPOTS</text></svg>